<?xml version="1.0" encoding="utf-8"?>
<!-- Generator: Adobe Illustrator 25.2.3, SVG Export Plug-In . SVG Version: 6.00 Build 0)  -->
<svg version="1.1" id="Layer_1" xmlns="http://www.w3.org/2000/svg" xmlns:xlink="http://www.w3.org/1999/xlink" x="0px" y="0px"
	 viewBox="0 0 1005.6 1271.64" style="enable-background:new 0 0 1005.6 1271.64;" xml:space="preserve">
<style type="text/css">
	.st0{fill:#252930;}
	.st1{fill:#1F2AA5;}
	.st2{fill:#1C256A;}
	.st3{fill:#2E4486;}
	.st4{fill:#0D245E;}
	.st5{fill:#5399DB;}
	.st6{fill:#2670CA;}
	.st7{fill:#0092C6;}
	.st8{fill:#00659D;}
	.st9{fill:#299261;}
	.st10{fill:#4DC2B3;}
	.st11{fill:#390094;}
	.st12{fill:#23106E;}
	.st13{fill:#94D357;}
	.st14{fill:#4EBA74;}
	.st15{fill:#4D3575;}
	.st16{fill:#7357C1;}
	.st17{fill:#D1DD00;}
	.st18{fill:#A8D42E;}
	.st19{fill:#6E2746;}
	.st20{fill:#B51A65;}
	.st21{fill:#5B2135;}
	.st22{fill:#892D43;}
	.st23{fill:#921E30;}
	.st24{fill:#692832;}
	.st25{fill:#C8002D;}
	.st26{fill:#B01630;}
	.st27{fill:#CE7212;}
	.st28{fill:#DE481E;}
	.st29{fill:#781556;}
	.st30{fill:#8D0062;}
	.st31{fill:#EE9D2E;}
	.st32{fill:#EA8215;}
	.st33{fill:#572841;}
	.st34{fill:#5A2B64;}
	.st35{fill:#F5D800;}
	.st36{fill:#EEB500;}
	.st37{fill:#303485;}
	.st38{fill:#2C4390;}
	.st39{fill:#056EB5;}
	.st40{fill:#1269B0;}
	.st41{fill:#4A9FDC;}
	.st42{fill:#1D6D94;}
	.st43{fill:#009DC6;}
	.st44{fill:#297380;}
	.st45{fill:#0097A6;}
	.st46{fill:#2C8657;}
	.st47{fill:#4CBF8C;}
	.st48{fill:#4E4D97;}
	.st49{fill:#6EA941;}
	.st50{fill:#348840;}
	.st51{fill:#5A287F;}
	.st52{fill:#BACB31;}
	.st53{fill:#93BA1F;}
	.st54{fill:#C23888;}
	.st55{fill:#7F1957;}
	.st56{fill:#C72F71;}
	.st57{fill:#8E1A4F;}
	.st58{fill:#C6004C;}
	.st59{fill:#8C1A34;}
	.st60{fill:#C31C1A;}
	.st61{fill:#921B1F;}
	.st62{fill:#C8451B;}
	.st63{fill:#9E2514;}
	.st64{fill:#66256D;}
	.st65{fill:#A53988;}
	.st66{fill:#DC9129;}
	.st67{fill:#D16B1C;}
	.st68{fill:#913C8A;}
	.st69{fill:#774B93;}
	.st70{fill:#F4CF00;}
	.st71{fill:#E6AD19;}
	.st72{fill:#FFFFFF;}
</style>
<g>
	<polygon class="st37" points="788.86,225.37 788.86,84.24 647.78,84.24 	"/>
	<polygon class="st38" points="930.03,84.24 930.03,225.37 788.86,225.37 	"/>
	<polygon class="st39" points="788.86,225.37 788.86,84.24 930.03,84.24 	"/>
	<polygon class="st40" points="788.86,225.37 788.86,366.55 930.03,366.55 	"/>
	<polygon class="st41" points="930.03,366.55 930.03,225.37 788.86,225.37 	"/>
	<polygon class="st42" points="930.03,366.55 930.03,507.67 788.86,507.67 	"/>
	<polygon class="st43" points="788.86,507.67 788.86,366.55 930.03,366.55 	"/>
	<polygon class="st44" points="788.86,507.67 788.86,648.83 930.03,648.83 	"/>
	<polygon class="st45" points="930.03,648.83 930.03,507.67 788.86,507.67 	"/>
	<polygon class="st46" points="930.03,648.83 930.03,789.97 788.86,789.97 	"/>
	<polygon class="st47" points="788.86,789.97 788.86,648.83 930.03,648.83 	"/>
	<polygon class="st48" points="647.78,84.24 647.78,225.37 788.86,225.37 	"/>
	<polygon class="st49" points="647.78,507.67 647.78,648.83 788.86,648.83 	"/>
	<polygon class="st50" points="788.86,789.97 788.86,648.83 647.78,648.83 	"/>
	<polygon class="st11" points="647.78,84.24 647.78,225.37 506.59,225.37 	"/>
	<polygon class="st51" points="506.59,366.55 506.59,225.37 365.47,225.37 	"/>
	<polygon class="st52" points="506.59,366.55 506.59,507.67 647.78,507.67 	"/>
	<polygon class="st53" points="647.78,648.83 647.78,507.67 506.59,507.67 	"/>
	<polygon class="st54" points="83.18,84.24 83.18,225.37 224.32,225.37 	"/>
	<polygon class="st55" points="224.32,225.37 224.32,84.24 83.18,84.24 	"/>
	<polygon class="st56" points="224.32,225.37 224.32,366.55 83.18,366.55 	"/>
	<polygon class="st57" points="83.18,366.55 83.18,225.37 224.32,225.37 	"/>
	<polygon class="st58" points="83.18,366.55 83.18,507.67 224.32,507.67 	"/>
	<polygon class="st59" points="224.32,507.67 224.32,366.55 83.18,366.55 	"/>
	<polygon class="st60" points="224.32,507.67 224.32,648.83 83.18,648.83 	"/>
	<polygon class="st61" points="83.18,648.83 83.18,507.67 224.32,507.67 	"/>
	<polygon class="st62" points="83.18,648.83 83.18,789.97 224.32,789.97 	"/>
	<polygon class="st63" points="224.32,789.97 224.32,648.83 83.18,648.83 	"/>
	<polygon class="st64" points="365.47,84.24 365.47,225.37 224.32,225.37 	"/>
	<polygon class="st65" points="224.32,225.37 224.32,84.24 365.47,84.24 	"/>
	<polygon class="st66" points="365.47,507.67 365.47,648.83 224.32,648.83 	"/>
	<polygon class="st67" points="224.32,789.97 224.32,648.83 365.47,648.83 	"/>
	<polygon class="st68" points="365.47,84.24 365.47,225.37 506.59,225.37 	"/>
	<polygon class="st69" points="506.59,366.55 506.59,225.37 647.78,225.37 	"/>
	<polygon class="st70" points="506.59,366.55 506.59,507.67 365.47,507.67 	"/>
	<polygon class="st71" points="365.47,648.83 365.47,507.67 506.59,507.67 	"/>
	<g>
		<g>
			<rect x="344.59" y="855.69" class="st0" width="38.34" height="193.12"/>
			<polygon class="st0" points="267.92,855.69 245.84,855.69 194.76,996.17 143.62,855.69 121.48,855.69 105.3,855.69 83.18,855.69 
				83.18,1048.81 121.48,1048.81 121.48,900.26 175.6,1048.81 213.91,1048.81 267.92,900.5 267.92,1048.81 306.26,1048.81 
				306.26,855.69 284.22,855.69 			"/>
			<rect x="891.73" y="855.69" class="st0" width="38.3" height="193.12"/>
			<polygon class="st0" points="815.04,855.69 792.99,855.69 741.85,996.17 690.73,855.69 668.67,855.69 652.42,855.69 
				630.33,855.69 630.33,1048.81 668.67,1048.81 668.67,900.36 722.69,1048.81 761.04,1048.81 815.04,900.43 815.04,1048.81 
				853.37,1048.81 853.37,855.69 831.29,855.69 			"/>
			<polygon class="st0" points="517.15,855.69 496.11,855.69 478.74,855.69 408.49,1048.81 446.85,1048.81 506.62,884.54 
				566.4,1048.81 604.76,1048.81 534.49,855.69 			"/>
		</g>
		<g>
			<path class="st0" d="M165.92,1174.38h-9.48c-1.05,0-1.85-0.65-2.07-1.45l-7.76-22.34h-44.13l-7.77,22.34
				c-0.18,0.8-1.15,1.45-2.06,1.45h-9.47l28.2-80.32c1.36-3.8,4.97-6.44,9.13-6.44h13.74c0.56,0,1.14,0.33,1.4,0.8L165.92,1174.38z
				 M143.16,1140.65l-15.04-43.09h-5.65c-0.95,0-1.74,0.59-2.09,1.48l-14.44,41.61H143.16z"/>
			<path class="st0" d="M186.77,1167.66v-73.34c0-3.7,2.98-6.69,6.72-6.69h37.11c10.86,0,19.61,8.79,19.61,19.64v47.51
				c0,10.72-8.75,19.61-19.61,19.61H193.5C189.76,1174.38,186.77,1171.39,186.77,1167.66z M230.6,1164.44
				c4.83,0,8.74-3.92,8.74-8.75v-49.37c0-4.86-3.91-8.76-8.74-8.76h-30.75c-1.3,0-2.21,0.96-2.21,2.19v62.55
				c0,1.12,0.92,2.14,2.21,2.14H230.6z"/>
			<path class="st0" d="M331.97,1088.99c0.33-0.67,1.19-1.36,1.96-1.36h10.06l-30.06,85.3c-0.21,0.8-1.12,1.45-1.96,1.45h-9.13
				c-0.79,0-1.73-0.65-1.93-1.45l-30.06-85.3h10.06c0.83,0,1.75,0.69,2,1.36l24.56,70.74L331.97,1088.99z"/>
			<path class="st0" d="M374.67,1106.31v21.99c1.17-1.4,3.26-2.34,5.64-2.34h38.01v8.48c0,0.78-0.66,1.47-1.49,1.47h-42.16v19.77
				c0,4.83,3.95,8.75,8.79,8.75h37.45c0.78,0,1.49,0.68,1.49,1.51v8.44h-38.94c-10.86,0-19.66-8.8-19.66-19.61v-47.51
				c0-10.84,8.8-19.64,19.66-19.64h38.94v8.43c0,0.82-0.71,1.49-1.49,1.49h-37.45C378.62,1097.55,374.67,1101.46,374.67,1106.31z"/>
			<path class="st0" d="M455.49,1132.81v40.12c0,0.8-0.66,1.45-1.49,1.45h-9.36v-80.07c0-3.7,2.98-6.69,6.7-6.69h36.31
				c10.84,0,19.64,6.82,19.64,18.59v11.23c0,10.17-7.28,15.69-15.74,17.86l18.52,39.07h-10.06c-0.83,0-1.78-0.65-2.06-1.37
				l-17.6-37.1h-14.8h-3.36c-3.24,0-5.64-0.89-6.46-3.1H455.49z M487.65,1125.97c4.82,0,8.74-3.95,8.74-8.73v-10.93
				c0-4.86-3.92-8.76-8.74-8.76h-29.97c-1.25,0-2.19,1.05-2.19,2.19v24.06c0,1.23,1.06,2.16,2.19,2.16H487.65z"/>
			<path class="st0" d="M589.03,1087.63v8.43c0,0.82-0.68,1.49-1.54,1.49h-24.72v75.38c0,0.8-0.56,1.45-1.46,1.45h-9.35v-76.83
				h-25.9v-8.45c0-0.78,0.66-1.47,1.47-1.47H589.03z"/>
			<path class="st0" d="M611.95,1172.93v-85.3h9.36c0.8,0,1.43,0.69,1.43,1.47v85.28h-9.31
				C612.65,1174.38,611.95,1173.73,611.95,1172.93z"/>
			<path class="st0" d="M692.31,1164.44c4.83,0,8.53-3.92,8.53-8.75v-10.53c0-1.15-0.92-2.41-2.09-2.75l-44.36-14.79
				c-3.48-1.17-6.37-5.09-6.37-8.79v-13.77c0-10.83,8.79-17.42,19.67-17.42h41.14v8.43c0,0.82-0.57,1.49-1.52,1.49h-39.62
				c-4.86,0-8.93,3.13-8.93,7.96v11.2c0,1.29,0.98,2.58,2.08,2.9l44.39,14.72c3.46,1.13,6,5.17,6,8.9v12.34
				c0,10.85-8.19,18.81-18.93,18.81h-44.29v-8.44c0-0.9,0.7-1.51,1.5-1.51H692.31z"/>
			<path class="st0" d="M737.66,1172.93v-85.3h9.36c0.8,0,1.46,0.69,1.46,1.47v85.28h-9.33
				C738.32,1174.38,737.66,1173.73,737.66,1172.93z"/>
			<path class="st0" d="M834.38,1158.68c-1.13-9-1.13-16.28-1.7-24.52v-45.06c0-0.78,0.69-1.47,1.5-1.47h9.34v86.75h-10.04
				c-0.79,0-1.86-0.65-2.19-1.37l-39.53-73.61c-0.59-1.05-1.98-1.85-3.13-1.85c-1.01,0-1.96,0-1.96,0v75.38
				c0,0.8-0.7,1.45-1.49,1.45h-9.39v-85.28c0-0.78,0.7-1.47,1.5-1.47h13.21c3.68,0,8.08,2.64,9.83,5.89l23.56,44.47L834.38,1158.68z
				"/>
			<path class="st0" d="M869.25,1155.25v-48.48c0-10.83,8.78-19.57,19.63-19.57h39.64v8.39c0,0.84-0.69,1.49-1.65,1.49h-37.99
				c-4.89,0-8.79,3.97-8.79,8.76v50.34c0,4.82,3.9,8.76,8.79,8.76h23.92c4.85,0,9.83-3.95,9.83-8.76v-20.96H901.6
				c-0.84,0-1.51-0.71-1.51-1.5v-8.45h30.86c0.82,0,1.5,0.69,1.5,1.5v29.57c0,12.28-8.79,18.52-19.65,18.52h-23.92
				C878.03,1174.86,869.25,1166.08,869.25,1155.25z"/>
		</g>
	</g>
</g>
</svg>
