<?xml version="1.0" encoding="utf-8"?>
<!-- Generator: Adobe Illustrator 25.2.3, SVG Export Plug-In . SVG Version: 6.00 Build 0)  -->
<svg version="1.1" id="Layer_1" xmlns="http://www.w3.org/2000/svg" xmlns:xlink="http://www.w3.org/1999/xlink" x="0px" y="0px"
	 viewBox="0 0 4602.37 1096.06" style="enable-background:new 0 0 4602.37 1096.06;" xml:space="preserve">
<style type="text/css">
	.st0{fill:#252930;}
	.st1{fill:#1F2AA5;}
	.st2{fill:#1C256A;}
	.st3{fill:#2E4486;}
	.st4{fill:#0D245E;}
	.st5{fill:#5399DB;}
	.st6{fill:#2670CA;}
	.st7{fill:#0092C6;}
	.st8{fill:#00659D;}
	.st9{fill:#299261;}
	.st10{fill:#4DC2B3;}
	.st11{fill:#390094;}
	.st12{fill:#23106E;}
	.st13{fill:#94D357;}
	.st14{fill:#4EBA74;}
	.st15{fill:#4D3575;}
	.st16{fill:#7357C1;}
	.st17{fill:#D1DD00;}
	.st18{fill:#A8D42E;}
	.st19{fill:#6E2746;}
	.st20{fill:#B51A65;}
	.st21{fill:#5B2135;}
	.st22{fill:#892D43;}
	.st23{fill:#921E30;}
	.st24{fill:#692832;}
	.st25{fill:#C8002D;}
	.st26{fill:#B01630;}
	.st27{fill:#CE7212;}
	.st28{fill:#DE481E;}
	.st29{fill:#781556;}
	.st30{fill:#8D0062;}
	.st31{fill:#EE9D2E;}
	.st32{fill:#EA8215;}
	.st33{fill:#572841;}
	.st34{fill:#5A2B64;}
	.st35{fill:#F5D800;}
	.st36{fill:#EEB500;}
	.st37{fill:#303485;}
	.st38{fill:#2C4390;}
	.st39{fill:#056EB5;}
	.st40{fill:#1269B0;}
	.st41{fill:#4A9FDC;}
	.st42{fill:#1D6D94;}
	.st43{fill:#009DC6;}
	.st44{fill:#297380;}
	.st45{fill:#0097A6;}
	.st46{fill:#2C8657;}
	.st47{fill:#4CBF8C;}
	.st48{fill:#4E4D97;}
	.st49{fill:#6EA941;}
	.st50{fill:#348840;}
	.st51{fill:#5A287F;}
	.st52{fill:#BACB31;}
	.st53{fill:#93BA1F;}
	.st54{fill:#C23888;}
	.st55{fill:#7F1957;}
	.st56{fill:#C72F71;}
	.st57{fill:#8E1A4F;}
	.st58{fill:#C6004C;}
	.st59{fill:#8C1A34;}
	.st60{fill:#C31C1A;}
	.st61{fill:#921B1F;}
	.st62{fill:#C8451B;}
	.st63{fill:#9E2514;}
	.st64{fill:#66256D;}
	.st65{fill:#A53988;}
	.st66{fill:#DC9129;}
	.st67{fill:#D16B1C;}
	.st68{fill:#913C8A;}
	.st69{fill:#774B93;}
	.st70{fill:#F4CF00;}
	.st71{fill:#E6AD19;}
	.st72{fill:#FFFFFF;}
</style>
<g>
	<rect x="559.26" y="259.41" class="st0" width="63.41" height="319.46"/>
	<polygon class="st0" points="432.43,259.41 395.94,259.41 311.4,491.76 226.85,259.41 190.23,259.41 163.4,259.41 126.82,259.41 
		126.82,578.87 190.23,578.87 190.23,333.13 279.72,578.87 343.13,578.87 432.43,333.51 432.43,578.87 495.85,578.87 495.85,259.41 
		459.39,259.41 	"/>
	<rect x="1464.36" y="259.41" class="st0" width="63.41" height="319.46"/>
	<polygon class="st0" points="1337.48,259.41 1300.98,259.41 1216.43,491.76 1131.87,259.41 1095.32,259.41 1068.49,259.41 
		1031.93,259.41 1031.93,578.87 1095.32,578.87 1095.32,333.25 1184.77,578.87 1248.15,578.87 1337.48,333.38 1337.48,578.87 
		1400.89,578.87 1400.89,259.41 1364.38,259.41 	"/>
	<polygon class="st0" points="844.7,259.41 809.95,259.41 781.21,259.41 664.96,578.87 728.41,578.87 827.32,307.12 926.2,578.87 
		989.62,578.87 873.39,259.41 	"/>
</g>
<g>
	<path class="st0" d="M263.18,786.06h-15.63c-1.69,0-3.05-1.13-3.45-2.48l-12.72-36.77h-72.77l-12.72,36.77
		c-0.39,1.34-1.91,2.48-3.44,2.48h-15.63l46.48-132.34c2.25-6.31,8.16-10.68,15.04-10.68H211c0.93,0,1.88,0.56,2.27,1.34
		L263.18,786.06z M225.65,730.43l-24.76-71.01h-9.33c-1.54,0-2.84,0.95-3.43,2.47l-23.79,68.54H225.65z"/>
	<path class="st0" d="M297.54,775V654.1c0-6.12,4.96-11.06,11.04-11.06h61.12c17.9,0,32.36,14.5,32.36,32.38v78.27
		c0,17.71-14.46,32.37-32.36,32.37h-61.12C302.5,786.06,297.54,781.09,297.54,775z M369.69,769.67c7.99,0,14.48-6.49,14.48-14.48
		v-81.3c0-8.02-6.48-14.47-14.48-14.47h-50.65c-2.08,0-3.61,1.51-3.61,3.63v103.01c0,1.91,1.52,3.61,3.61,3.61H369.69z"/>
	<path class="st0" d="M536.77,645.33c0.56-1.12,1.91-2.29,3.27-2.29h16.55l-49.52,140.54c-0.35,1.34-1.93,2.48-3.22,2.48h-15.09
		c-1.29,0-2.83-1.13-3.2-2.48l-49.53-140.54h16.6c1.3,0,2.83,1.17,3.22,2.29l40.57,116.56L536.77,645.33z"/>
	<path class="st0" d="M607.1,673.89v36.17c1.93-2.24,5.35-3.8,9.33-3.8h62.65v13.89c0,1.31-1.12,2.5-2.48,2.5h-69.5v32.54
		c0,7.99,6.48,14.48,14.47,14.48h61.73c1.29,0,2.44,1.14,2.44,2.46v13.93h-64.17c-17.91,0-32.36-14.47-32.36-32.37v-78.27
		c0-17.87,14.45-32.38,32.36-32.38h64.17v13.92c0,1.31-1.15,2.46-2.44,2.46h-61.73C613.58,659.42,607.1,665.88,607.1,673.89z"/>
	<path class="st0" d="M740.3,717.49v66.1c0,1.34-1.13,2.48-2.48,2.48h-15.43V654.1c0-6.12,4.96-11.06,11.04-11.06h59.78
		c17.94,0,32.41,11.26,32.41,30.66v18.46c0,16.77-11.99,25.89-25.89,29.53l30.45,64.37h-16.55c-1.34,0-2.88-1.13-3.44-2.28
		l-28.93-61.12H756.9h-5.57c-5.3,0-9.3-1.53-10.64-5.17H740.3z M793.21,706.26c8.04,0,14.5-6.48,14.5-14.48v-17.89
		c0-8.02-6.46-14.47-14.5-14.47h-49.3c-2.1,0-3.61,1.7-3.61,3.63v39.6c0,2.08,1.73,3.61,3.61,3.61H793.21z"/>
	<path class="st0" d="M960.29,643.04v13.92c0,1.31-1.12,2.46-2.47,2.46H917.1v124.16c0,1.34-1,2.48-2.51,2.48h-15.43V659.42H856.5
		v-13.91c0-1.29,1.18-2.46,2.53-2.46H960.29z"/>
	<path class="st0" d="M998.08,783.58V643.04h15.43c1.34,0,2.46,1.17,2.46,2.46v140.55h-15.43
		C999.2,786.06,998.08,784.92,998.08,783.58z"/>
	<path class="st0" d="M1130.43,769.67c7.99,0,14.09-6.49,14.09-14.48v-17.34c0-1.88-1.46-3.98-3.39-4.56l-73.16-24.36
		c-5.7-1.92-10.45-8.38-10.45-14.48v-22.69c0-17.89,14.45-28.73,32.4-28.73h67.77v13.92c0,1.31-0.96,2.46-2.48,2.46h-65.29
		c-8,0-14.68,5.17-14.68,13.16v18.45c0,2.1,1.51,4.19,3.44,4.78l73.11,24.17c5.73,1.89,9.9,8.57,9.9,14.67v20.37
		c0,17.89-13.5,31.04-31.24,31.04h-72.91v-13.93c0-1.54,1.17-2.46,2.46-2.46H1130.43z"/>
	<path class="st0" d="M1205.15,783.58V643.04h15.47c1.32,0,2.43,1.17,2.43,2.46v140.55h-15.41
		C1206.29,786.06,1205.15,784.92,1205.15,783.58z"/>
	<path class="st0" d="M1364.59,760.14c-1.91-14.84-1.91-26.84-2.86-40.34v-74.29c0-1.29,1.17-2.46,2.48-2.46h15.43v143.01h-16.56
		c-1.35,0-3.05-1.13-3.61-2.28l-65.11-121.31c-0.96-1.7-3.25-3.05-5.18-3.05c-1.68,0-3.22,0-3.22,0v124.16
		c0,1.34-1.17,2.48-2.46,2.48h-15.43V645.51c0-1.29,1.12-2.46,2.48-2.46h21.66c6.14,0,13.34,4.37,16.21,9.72l38.84,73.31
		L1364.59,760.14z"/>
	<path class="st0" d="M1421.99,754.46v-79.81c0-17.91,14.45-32.35,32.35-32.35h65.34v13.89c0,1.36-1.13,2.5-2.69,2.5h-62.65
		c-7.98,0-14.46,6.43-14.46,14.43V756c0,7.97,6.48,14.44,14.46,14.44h39.44c8.01,0,16.18-6.47,16.18-14.44v-34.53h-34.63
		c-1.35,0-2.54-1.12-2.54-2.46v-13.9h50.88c1.29,0,2.49,1.16,2.49,2.47v48.79c0,20.15-14.48,30.45-32.39,30.45h-39.44
		C1436.44,786.82,1421.99,772.32,1421.99,754.46z"/>
</g>
<g>
	<polygon class="st1" points="2743.36,127.82 2743.36,296.23 2574.95,296.23 	"/>
	<polygon class="st2" points="2574.95,296.23 2574.95,127.82 2743.36,127.82 	"/>
	<polygon class="st3" points="2574.95,296.23 2574.95,464.62 2743.36,464.62 	"/>
	<polygon class="st4" points="2743.36,464.62 2743.36,296.23 2574.95,296.23 	"/>
	<polygon class="st5" points="2743.36,464.62 2743.36,633.01 2574.95,633.01 	"/>
	<polygon class="st6" points="2574.95,633.01 2574.95,464.62 2743.36,464.62 	"/>
	<polygon class="st7" points="2574.95,633.01 2574.95,801.35 2743.36,801.35 	"/>
	<polygon class="st8" points="2743.36,801.35 2743.36,633.01 2574.95,633.01 	"/>
	<polygon class="st9" points="2743.36,801.35 2743.36,969.71 2574.95,969.71 	"/>
	<polygon class="st10" points="2574.95,969.71 2574.95,801.35 2743.36,801.35 	"/>
	<polygon class="st11" points="2406.56,127.82 2406.56,296.23 2574.95,296.23 	"/>
	<polygon class="st12" points="2574.95,296.23 2574.95,127.82 2406.56,127.82 	"/>
	<polygon class="st13" points="2406.56,633.01 2406.56,801.35 2574.95,801.35 	"/>
	<polygon class="st14" points="2574.95,969.71 2574.95,801.35 2406.56,801.35 	"/>
	<polygon class="st15" points="2406.56,127.82 2406.56,296.23 2238.17,296.23 	"/>
	<polygon class="st16" points="2238.17,464.62 2238.17,296.23 2406.56,296.23 	"/>
	<polygon class="st17" points="2238.17,464.62 2238.17,633.01 2406.56,633.01 	"/>
	<polygon class="st18" points="2406.56,801.35 2406.56,633.01 2238.17,633.01 	"/>
	<polygon class="st19" points="1733.02,127.82 1733.02,296.23 1901.41,296.23 	"/>
	<polygon class="st20" points="1901.41,296.23 1901.41,127.82 1733.02,127.82 	"/>
	<polygon class="st21" points="1901.41,296.23 1901.41,464.62 1733.02,464.62 	"/>
	<polygon class="st22" points="1733.02,464.62 1733.02,296.23 1901.41,296.23 	"/>
	<polygon class="st23" points="1733.02,464.62 1733.02,633.01 1901.41,633.01 	"/>
	<polygon class="st24" points="1901.41,633.01 1901.41,464.62 1733.02,464.62 	"/>
	<polygon class="st25" points="1901.41,633.01 1901.41,801.35 1733.02,801.35 	"/>
	<polygon class="st26" points="1733.02,801.35 1733.02,633.01 1901.41,633.01 	"/>
	<polygon class="st27" points="1733.02,801.35 1733.02,969.71 1901.41,969.71 	"/>
	<polygon class="st28" points="1901.41,969.71 1901.41,801.35 1733.02,801.35 	"/>
	<polygon class="st29" points="2069.81,127.82 2069.81,296.23 1901.41,296.23 	"/>
	<polygon class="st30" points="1901.41,296.23 1901.41,127.82 2069.81,127.82 	"/>
	<polygon class="st31" points="2069.81,633.01 2069.81,801.35 1901.41,801.35 	"/>
	<polygon class="st32" points="1901.41,969.71 1901.41,801.35 2069.81,801.35 	"/>
	<polygon class="st33" points="2069.81,127.82 2069.81,296.23 2238.17,296.23 	"/>
	<polygon class="st34" points="2238.17,464.62 2238.17,296.23 2069.81,296.23 	"/>
	<polygon class="st35" points="2238.17,464.62 2238.17,633.01 2069.81,633.01 	"/>
	<polygon class="st36" points="2069.81,801.35 2069.81,633.01 2238.17,633.01 	"/>
</g>
<g>
	<rect x="3081.69" y="657.07" class="st0" width="15.84" height="15.41"/>
	<rect x="3113.33" y="657.07" class="st0" width="15.84" height="15.41"/>
	<path class="st0" d="M3246.41,755.09c0,4.01-1.53,7.31-4.56,9.94c-3.03,2.93-6.81,4.44-11.3,4.44H2984.2
		c-2.16,0-4.19-0.41-6.07-1.16c-1.86-0.76-3.58-1.76-5.09-3.11c-1.51-1.31-2.68-2.84-3.45-4.56c-0.83-1.74-1.25-3.6-1.25-5.54
		v-44.21c0-1.83,0.42-3.6,1.18-5.32c0.74-1.76,1.92-3.28,3.36-4.61c3.19-2.87,6.96-4.35,11.3-4.35h16v-15.51h-16
		c-4.17,0-8.21,0.77-12.02,2.25c-3.84,1.48-7.18,3.58-10.06,6.26c-2.84,2.73-5.17,5.93-6.87,9.67c-1.75,3.71-2.64,7.59-2.64,11.61
		v44.21c0,3.97,0.81,7.79,2.44,11.46c1.59,3.6,3.84,6.81,6.74,9.47c2.91,2.68,6.26,4.78,10.13,6.39c3.88,1.58,7.99,2.36,12.29,2.36
		h246.35c2.29,0,4.38-0.18,6.22-0.48c1.81-0.31,3.75-0.87,5.87-1.7c3.73-1.53,7.07-3.61,10.02-6.33c3.01-2.69,5.3-5.89,7.03-9.52
		c1.68-3.64,2.49-7.56,2.49-11.64v-74h-15.75V755.09z"/>
	<path class="st0" d="M3500.97,755.18c0,1.83-0.35,3.61-1.02,5.29c-0.77,1.73-1.83,3.25-3.38,4.63c-2.84,2.53-6.11,3.91-9.89,4.24
		v-0.07h-18.7h-0.96h-33.39h-0.96h-8.88h-0.96h-0.06h-0.96h-95.1c-4.36,0-8.12-1.46-11.3-4.37c-1.48-1.36-2.62-2.87-3.41-4.44
		c-0.46-1.01-0.74-1.89-0.83-2.7c-0.13-0.78-0.2-1.7-0.2-2.77V637.14h-15.89V755c0,4.03,0.87,7.88,2.48,11.62
		c1.7,3.72,3.95,6.88,6.92,9.55c2.88,2.64,6.31,4.69,10.23,6.24c3.71,1.4,7.51,2.13,11.33,2.21v0.07h95.75h0.96h0.06h0.96h8.88h0.96
		h33.39h0.96h17.13v0.17c4.21,0,8.25-0.74,12.13-2.26c3.93-1.53,7.29-3.61,10.1-6.26c2.86-2.62,5.16-5.82,6.88-9.58
		c1.78-3.76,2.64-7.58,2.64-11.56v-68.76h-15.89V755.18z"/>
	<rect x="3500.97" y="657.07" class="st0" width="15.89" height="15.45"/>
	<path class="st0" d="M4166.89,702.28c-0.2-0.64-0.63-1.55-1.24-2.77c-1.57-3.51-3.8-6.59-6.61-9.21c-2.92-2.66-6.39-4.8-10.43-6.48
		c-4.1-1.66-8.05-2.51-11.98-2.51h-47.47c-4.32,0-8.25,0.71-11.87,2.12c-3.6,1.43-6.94,3.54-10.08,6.39
		c-2.82,2.58-5.13,5.79-6.87,9.59c-1.79,3.79-2.69,7.67-2.69,11.58v8.89v35.21c0,1.74-0.38,3.55-1.11,5.38
		c-0.74,1.84-1.86,3.37-3.36,4.63c-2.88,2.64-6.3,4.04-10.21,4.26v-0.08h-18.68h-1h-17.68H4000h-0.91h-8.91h-270.81h-0.96h-17.7
		c-4.58,0-8.36-1.43-11.3-4.25c-2.94-2.83-4.45-6.23-4.45-10.14V637.14h-16.08v117.75c0,3.99-1.51,7.35-4.54,10.02
		c-2.83,2.91-6.63,4.32-11.43,4.25h-44.64V652.53h-15.97v116.63h-44.48v15.78h104.7h0.39c4.58,0,8.64-0.74,12.22-2.2
		c3.54-1.48,6.96-3.64,10.23-6.48l1.58-1.5l1.39,1.5c2.64,2.32,6,4.46,10.21,6.4c3.85,1.52,7.92,2.22,12.17,2.11v-0.09h17.7h0.96
		h270.81h8.91h0.91h5.61h17.68h1h17.59v0.26c4.47,0,8.51-0.74,12.09-2.2c3.63-1.48,6.94-3.64,10.09-6.48l1.61-1.5l1.44,1.42
		c2.73,2.56,6.04,4.62,9.93,6.24c3.93,1.58,7.99,2.36,12.13,2.36h78.98v-15.41h-78.98c-1.98,0-3.97-0.38-5.95-1.13
		c-1.94-0.74-3.67-1.83-5.26-3.2c-2.99-2.78-4.54-6.07-4.54-9.76v-35.39v-8.89c0-1.59,0.41-3.28,1.16-5.1
		c0.78-1.81,1.83-3.43,3.25-4.79c1.4-1.37,3.14-2.41,5.28-3.17c0.81-0.3,1.83-0.59,2.99-0.83c1.18-0.26,2.2-0.39,3.07-0.39h47.47
		c2.09,0,4.17,0.39,6.11,1.17c1.99,0.73,3.71,1.81,5.17,3.18c3.01,2.73,4.45,6.04,4.45,9.95v24.46h15.78v-24.46
		c0-1.97-0.15-3.75-0.46-5.37C4167.38,704.05,4167.09,702.9,4166.89,702.28z"/>
	<path class="st0" d="M4440.33,637.14V755c0,3.95-1.5,7.3-4.49,10.02c-1.27,1.19-2.93,2.19-5,3.07c-1.81,0.7-3.63,1.06-5.44,1.18
		h-70.88c-4.54,0-8.33-1.43-11.3-4.25c-2.97-2.83-4.45-6.23-4.45-10.14V637.02h-16.08v117.87c0,3.99-1.49,7.35-4.48,10.02
		c-2.88,2.91-6.7,4.32-11.45,4.25h-47.01V652.53h-15.97v116.63h-44.5v15.78h107.1h0.38c4.54,0,8.64-0.74,12.17-2.2
		c3.53-1.48,6.96-3.64,10.23-6.48l1.55-1.5l1.48,1.5c2.57,2.32,5.95,4.46,10.15,6.4c3.88,1.52,7.94,2.22,12.17,2.11v-0.09h69.95
		v0.36c4.39,0,8.49-0.75,12.24-2.28c3.75-1.49,7.05-3.64,10.06-6.43c2.94-2.76,5.32-5.99,7.02-9.76c1.75-3.73,2.67-7.61,2.67-11.56
		V637.14H4440.33z"/>
	<path class="st0" d="M4276.92,808.58v-2.72c0-0.71-0.07-1.37-0.18-1.93c-0.11-0.59-0.2-1-0.28-1.22c-0.06-0.21-0.22-0.55-0.46-1
		c-0.57-1.24-1.35-2.38-2.4-3.31c-1.05-0.96-2.27-1.73-3.75-2.36c-1.48-0.59-2.93-0.89-4.35-0.89h-17.15c-1.57,0-2.97,0.24-4.3,0.77
		c-1.31,0.51-2.48,1.27-3.62,2.31c-1.03,0.94-1.86,2.08-2.51,3.45c-0.66,1.37-0.96,2.79-0.96,4.2v3.22v3.78
		c0,0.63-0.15,1.29-0.41,1.94c-0.24,0.68-0.66,1.22-1.2,1.67c-1.05,0.97-2.29,1.47-3.71,1.56v-0.05h-7.11v5.59h6.72v0.1
		c1.62,0,3.1-0.28,4.39-0.82c1.29-0.55,2.51-1.31,3.65-2.33l0.59-0.54l0.5,0.53c1,0.93,2.18,1.67,3.62,2.22
		c1.4,0.57,2.86,0.87,4.36,0.87h28.57v-5.57h-28.57c-0.72,0-1.42-0.14-2.16-0.42c-0.68-0.26-1.33-0.65-1.87-1.14
		c-1.07-1.02-1.66-2.2-1.66-3.54v-3.85v-3.22c0-0.58,0.15-1.19,0.44-1.84c0.29-0.68,0.66-1.25,1.14-1.74
		c0.52-0.48,1.15-0.87,1.94-1.13c0.28-0.12,0.66-0.23,1.07-0.32c0.41-0.09,0.78-0.15,1.11-0.15h17.15c0.77,0,1.51,0.15,2.21,0.41
		c0.74,0.28,1.35,0.69,1.9,1.17c1.07,0.98,1.62,2.19,1.62,3.6v2.72H4276.92z"/>
</g>
<g>
	<path class="st0" d="M4456.22,491.93v-86.77c0,0,9.72-98.51-101.09-98.51c-97.95,0-112.86,73.95-114.98,94.67
		c-0.25,2.73-0.33,4.52-0.33,5.11c0,0.26,0.02,0.68,0.06,1.16c-0.16,3.48-0.35,37.11-0.49,41.41c-0.22,7.63-1.42,14.25-2.57,17.89
		c-0.14,0.29-0.27,0.67-0.35,0.99c-0.08,0.13-0.13,0.33-0.23,0.51c-4.87,12.38-15.54,23.53-38.55,23.53h-82.11V341.51h-68.7v150.42
		H3922.7V241.17h-68.68v305.21h349.5c0,0,53.78,2.59,64.82-27.86c0,0,22.65,27.91,87.45,27.91c64.8,0,100.67,0,100.67,0
		L4456.22,491.93z M4390.45,415.52v76.09h-32.73c-42.97,0-48.94-36.05-49.75-47.64c-0.12-1.79-0.12-32.11-0.12-32.52
		c0-3.1,0.31-51.01,43.4-51.01C4394.36,360.45,4390.45,415.52,4390.45,415.52z"/>
	<rect x="3083.44" y="568.75" class="st0" width="49.56" height="54.47"/>
	<rect x="3155.31" y="568.75" class="st0" width="49.58" height="54.47"/>
	<path class="st0" d="M3765.58,405.15c0,0,9.72-98.51-101.08-98.51c-97.94,0-112.87,73.95-114.98,94.67
		c-0.25,2.73-0.33,4.52-0.33,5.11c0,0.26,0.02,0.68,0.04,1.16c-0.13,3.48-0.33,37.11-0.47,41.41c-0.22,7.63-1.42,14.25-2.57,17.89
		c-0.14,0.29-0.27,0.67-0.37,0.99c-0.06,0.13-0.12,0.33-0.21,0.51c-4.87,12.39-15.54,23.53-38.56,23.53h-89.73v-51.34h-0.14
		c-2.73-140.97-70.62-139.65-116.73-141.1c-6.19-0.18-12.6-0.17-19.12-0.01v-0.24c-42.74,1.07-88.17,8.82-88.17,8.82v55.87v76.43
		v51.45h-66.56h-2.69c0,0-84.72,5.11-107.19-64.63c-8.9-27.53-8.92-66.23,6.99-120.58l-72.01,16.16c0,0-58.8,223.42,174.9,223.42
		h66.56h63.23h5.12V419.8v-55.86v-10.78h19.82v0.24h10.32l13.61,0.46c48,0,43.72,69.09,43.72,69.09v123.48h127.17v-0.05h36.74
		c0,0,53.78,2.59,64.8-27.86c0,0,22.69,27.91,87.47,27.91c64.79,0,100.63,0,100.63,0l-0.21-54.5V405.15z M3699.8,415.52v76.09
		h-32.71c-42.98,0-48.92-36.05-49.77-47.64c-0.12-1.79-0.12-32.11-0.12-32.52c0-3.1,0.33-51.01,43.42-51.01
		C3703.71,360.45,3699.8,415.52,3699.8,415.52z"/>
	<rect x="4092.1" y="568.75" class="st0" width="49.58" height="54.47"/>
	<rect x="4020.21" y="568.75" class="st0" width="49.58" height="54.47"/>
</g>
</svg>
